<?xml version="1.0" standalone="no"?>
<!DOCTYPE svg PUBLIC "-//W3C//DTD SVG 20010904//EN"
 "http://www.w3.org/TR/2001/REC-SVG-20010904/DTD/svg10.dtd">
<svg version="1.0" xmlns="http://www.w3.org/2000/svg"
 width="512.000000pt" height="512.000000pt" viewBox="0 0 512.000000 512.000000"
 preserveAspectRatio="xMidYMid meet">

<g transform="translate(0.000000,512.000000) scale(0.100000,-0.100000)"
fill="#000000" stroke="none">
<path d="M856 4664 c-192 -46 -355 -211 -401 -405 -22 -94 -22 -954 0 -1048
47 -200 216 -363 420 -406 102 -21 918 -21 1020 0 108 23 190 68 271 149 81
81 126 163 149 271 21 102 21 918 0 1020 -43 204 -206 373 -406 420 -91 21
-964 21 -1053 -1z m998 -315 c23 -6 57 -29 86 -58 71 -71 72 -81 68 -586 -3
-397 -4 -433 -22 -465 -26 -49 -55 -79 -101 -103 -39 -21 -52 -22 -470 -25
-505 -4 -515 -3 -586 68 -29 29 -52 63 -58 86 -15 53 -15 885 0 938 14 50 83
123 134 141 32 11 126 14 475 15 281 0 449 -4 474 -11z"/>
<path d="M3206 4664 c-196 -48 -358 -218 -401 -419 -12 -56 -15 -160 -15 -510
0 -487 4 -527 62 -645 42 -87 151 -196 238 -238 118 -58 158 -62 645 -62 491
0 528 4 651 65 133 65 248 215 280 364 20 98 20 950 -1 1039 -43 181 -176 329
-355 394 -65 23 -69 23 -555 25 -398 1 -501 -1 -549 -13z m999 -315 c53 -15
129 -91 144 -144 16 -59 15 -884 -1 -939 -8 -25 -31 -59 -59 -87 -69 -70 -80
-71 -584 -67 -397 3 -433 4 -465 22 -49 26 -79 55 -103 101 -22 39 -22 48 -22
500 0 458 0 460 22 502 26 47 77 92 125 110 45 16 886 18 943 2z"/>
<path d="M870 2314 c-200 -43 -368 -208 -415 -405 -22 -94 -22 -954 0 -1048
47 -196 210 -359 406 -406 91 -21 941 -22 1042 0 200 42 368 213 412 420 21
102 21 918 0 1020 -23 108 -68 190 -149 271 -81 81 -163 126 -271 149 -99 21
-928 20 -1025 -1z m1015 -331 c46 -24 75 -54 101 -103 18 -33 19 -65 19 -495
0 -456 0 -460 -22 -502 -27 -51 -82 -96 -132 -112 -52 -15 -880 -15 -936 0
-53 15 -129 91 -144 144 -15 54 -15 885 0 939 14 52 93 130 145 144 25 7 196
10 484 9 435 -2 446 -2 485 -24z"/>
<path d="M3220 2314 c-152 -33 -302 -149 -368 -284 -58 -118 -62 -158 -62
-645 0 -487 4 -527 62 -645 41 -85 151 -196 235 -239 120 -60 144 -62 676 -59
475 3 483 3 546 26 179 65 313 213 356 393 22 94 22 954 0 1048 -48 202 -214
362 -421 406 -98 21 -928 20 -1024 -1z m978 -316 c59 -15 132 -85 150 -144 16
-55 17 -880 1 -939 -15 -53 -91 -129 -144 -144 -56 -15 -884 -15 -936 0 -50
16 -105 61 -132 112 -22 41 -22 49 -25 479 -2 281 1 452 8 476 20 76 71 130
146 157 52 19 859 21 932 3z"/>
</g>
</svg>
